<svg id="visual" viewBox="0 0 900 600" width="100%" height="100%" xmlns="http://www.w3.org/2000/svg" xmlns:xlink="http://www.w3.org/1999/xlink" version="1.1"><rect x="0" y="0" width="900" height="600" fill="#111111"></rect><path d="M0 145L21.5 138.5C43 132 86 119 128.8 112.5C171.7 106 214.3 106 257.2 104.3C300 102.7 343 99.3 385.8 105.2C428.7 111 471.3 126 514.2 134.3C557 142.7 600 144.3 642.8 142C685.7 139.7 728.3 133.3 771.2 131.8C814 130.3 857 133.7 878.5 135.3L900 137L900 0L878.5 0C857 0 814 0 771.2 0C728.3 0 685.7 0 642.8 0C600 0 557 0 514.2 0C471.3 0 428.7 0 385.8 0C343 0 300 0 257.2 0C214.3 0 171.7 0 128.8 0C86 0 43 0 21.5 0L0 0Z" fill="#141414"></path><path d="M0 84L21.5 88.7C43 93.3 86 102.7 128.8 104.5C171.7 106.3 214.3 100.7 257.2 100.5C300 100.3 343 105.7 385.8 101.7C428.7 97.7 471.3 84.3 514.2 85.7C557 87 600 103 642.8 103.2C685.7 103.3 728.3 87.7 771.2 87.2C814 86.7 857 101.3 878.5 108.7L900 116L900 0L878.5 0C857 0 814 0 771.2 0C728.3 0 685.7 0 642.8 0C600 0 557 0 514.2 0C471.3 0 428.7 0 385.8 0C343 0 300 0 257.2 0C214.3 0 171.7 0 128.8 0C86 0 43 0 21.5 0L0 0Z" fill="#101010"></path><path d="M0 65L21.5 67.5C43 70 86 75 128.8 78C171.7 81 214.3 82 257.2 77.8C300 73.7 343 64.3 385.8 63.8C428.7 63.3 471.3 71.7 514.2 78.5C557 85.3 600 90.7 642.8 89.5C685.7 88.3 728.3 80.7 771.2 74.2C814 67.7 857 62.3 878.5 59.7L900 57L900 0L878.5 0C857 0 814 0 771.2 0C728.3 0 685.7 0 642.8 0C600 0 557 0 514.2 0C471.3 0 428.7 0 385.8 0C343 0 300 0 257.2 0C214.3 0 171.7 0 128.8 0C86 0 43 0 21.5 0L0 0Z" fill="#0b0b0b"></path><path d="M0 42L21.5 42.3C43 42.7 86 43.3 128.8 47.3C171.7 51.3 214.3 58.7 257.2 62.2C300 65.7 343 65.3 385.8 64.5C428.7 63.7 471.3 62.3 514.2 60.8C557 59.3 600 57.7 642.8 54.5C685.7 51.3 728.3 46.7 771.2 45.8C814 45 857 48 878.5 49.5L900 51L900 0L878.5 0C857 0 814 0 771.2 0C728.3 0 685.7 0 642.8 0C600 0 557 0 514.2 0C471.3 0 428.7 0 385.8 0C343 0 300 0 257.2 0C214.3 0 171.7 0 128.8 0C86 0 43 0 21.5 0L0 0Z" fill="#060606"></path><path d="M0 24L21.5 25.8C43 27.7 86 31.3 128.8 31.5C171.7 31.7 214.3 28.3 257.2 27C300 25.7 343 26.3 385.8 25.3C428.7 24.3 471.3 21.7 514.2 19.7C557 17.7 600 16.3 642.8 18.2C685.7 20 728.3 25 771.2 28C814 31 857 32 878.5 32.5L900 33L900 0L878.5 0C857 0 814 0 771.2 0C728.3 0 685.7 0 642.8 0C600 0 557 0 514.2 0C471.3 0 428.7 0 385.8 0C343 0 300 0 257.2 0C214.3 0 171.7 0 128.8 0C86 0 43 0 21.5 0L0 0Z" fill="#000000"></path></svg>