<svg id="visual" viewBox="0 0 900 675" width="100%" height="100%" xmlns="http://www.w3.org/2000/svg" xmlns:xlink="http://www.w3.org/1999/xlink" version="1.1"><g stroke-width="1" stroke-linejoin="bevel"><path d="M443 336.5L443 303.3L419.8 303.5Z" fill="#111111" stroke="#111111"></path><path d="M443 336.5L474.3 307.5L443 303.3Z" fill="#0d0d0d" stroke="#0d0d0d"></path><path d="M511.3 418.8L481.3 304.3L474.3 307.5Z" fill="#141414" stroke="#141414"></path><path d="M474.3 307.5L481.3 304.3L443 303.3Z" fill="#070707" stroke="#070707"></path><path d="M419.8 303.5L377.8 317.3L443 336.5Z" fill="#000000" stroke="#000000"></path><path d="M377.8 317.3L404.8 386.8L443 336.5Z" fill="#0f0f0f" stroke="#0f0f0f"></path><path d="M443 336.5L511.3 418.8L474.3 307.5Z" fill="#020202" stroke="#020202"></path><path d="M443 303.3L399.8 233L419.8 303.5Z" fill="#070707" stroke="#070707"></path><path d="M419.8 303.5L399.8 233L377.8 317.3Z" fill="#0f0f0f" stroke="#0f0f0f"></path><path d="M422 208L399.8 233L443 303.3Z" fill="#121212" stroke="#121212"></path><path d="M315.5 309.3L341.5 351.5L377.8 317.3Z" fill="#111111" stroke="#111111"></path><path d="M377.8 317.3L341.5 351.5L404.8 386.8Z" fill="#0d0d0d" stroke="#0d0d0d"></path><path d="M385.8 458L415 423.8L357.5 448Z" fill="#141414" stroke="#141414"></path><path d="M404.8 386.8L511.3 418.8L443 336.5Z" fill="#141414" stroke="#141414"></path><path d="M341.5 351.5L337.5 379.8L404.8 386.8Z" fill="#040404" stroke="#040404"></path><path d="M472.3 207L422 208L443 303.3Z" fill="#0f0f0f" stroke="#0f0f0f"></path><path d="M324.5 184.8L315.5 309.3L399.8 233Z" fill="#090909" stroke="#090909"></path><path d="M399.8 233L315.5 309.3L377.8 317.3Z" fill="#0f0f0f" stroke="#0f0f0f"></path><path d="M341.5 351.5L277.3 318.3L337.5 379.8Z" fill="#111111" stroke="#111111"></path><path d="M481.3 304.3L472.3 207L443 303.3Z" fill="#000000" stroke="#000000"></path><path d="M415 423.8L511.3 418.8L404.8 386.8Z" fill="#090909" stroke="#090909"></path><path d="M481.3 304.3L541.5 202L472.3 207Z" fill="#0d0d0d" stroke="#0d0d0d"></path><path d="M456 462L516.3 424L511.3 418.8Z" fill="#141414" stroke="#141414"></path><path d="M582.5 307.5L563.5 287.3L481.3 304.3Z" fill="#111111" stroke="#111111"></path><path d="M582.5 307.5L481.3 304.3L573.5 394.8Z" fill="#111111" stroke="#111111"></path><path d="M541.5 202L478 189.8L472.3 207Z" fill="#090909" stroke="#090909"></path><path d="M472.3 207L478 189.8L422 208Z" fill="#0d0d0d" stroke="#0d0d0d"></path><path d="M419.8 127.5L373.8 193.8L422 208Z" fill="#141414" stroke="#141414"></path><path d="M422 208L373.8 193.8L399.8 233Z" fill="#090909" stroke="#090909"></path><path d="M385.8 458L456 462L415 423.8Z" fill="#090909" stroke="#090909"></path><path d="M415 423.8L456 462L511.3 418.8Z" fill="#020202" stroke="#020202"></path><path d="M357.5 448L415 423.8L404.8 386.8Z" fill="#141414" stroke="#141414"></path><path d="M260.3 219L284.3 306.5L315.5 309.3Z" fill="#0d0d0d" stroke="#0d0d0d"></path><path d="M315.5 309.3L277.3 318.3L341.5 351.5Z" fill="#0b0b0b" stroke="#0b0b0b"></path><path d="M337.5 379.8L357.5 448L404.8 386.8Z" fill="#040404" stroke="#040404"></path><path d="M419.8 127.5L364.5 188L373.8 193.8Z" fill="#000000" stroke="#000000"></path><path d="M373.8 193.8L324.5 184.8L399.8 233Z" fill="#141414" stroke="#141414"></path><path d="M318.3 430.8L357.5 448L337.5 379.8Z" fill="#020202" stroke="#020202"></path><path d="M573.5 394.8L481.3 304.3L511.3 418.8Z" fill="#000000" stroke="#000000"></path><path d="M563.5 287.3L541.5 202L481.3 304.3Z" fill="#121212" stroke="#121212"></path><path d="M582.5 307.5L583.8 299.5L563.5 287.3Z" fill="#000000" stroke="#000000"></path><path d="M284.3 306.5L277.3 318.3L315.5 309.3Z" fill="#0d0d0d" stroke="#0d0d0d"></path><path d="M243 388.8L318.3 430.8L337.5 379.8Z" fill="#0d0d0d" stroke="#0d0d0d"></path><path d="M555.5 431L573.5 394.8L516.3 424Z" fill="#141414" stroke="#141414"></path><path d="M516.3 424L573.5 394.8L511.3 418.8Z" fill="#111111" stroke="#111111"></path><path d="M582.5 307.5L616.8 303.3L583.8 299.5Z" fill="#121212" stroke="#121212"></path><path d="M606.8 207L541.5 202L563.5 287.3Z" fill="#0d0d0d" stroke="#0d0d0d"></path><path d="M532.5 494.3L555.5 431L516.3 424Z" fill="#0d0d0d" stroke="#0d0d0d"></path><path d="M284.3 306.5L262 315.3L277.3 318.3Z" fill="#090909" stroke="#090909"></path><path d="M277.3 318.3L243 388.8L337.5 379.8Z" fill="#020202" stroke="#020202"></path><path d="M260.3 219L262 315.3L284.3 306.5Z" fill="#141414" stroke="#141414"></path><path d="M350.5 138.5L324.5 184.8L364.5 188Z" fill="#0d0d0d" stroke="#0d0d0d"></path><path d="M364.5 188L324.5 184.8L373.8 193.8Z" fill="#111111" stroke="#111111"></path><path d="M527.3 151.5L465 144.5L478 189.8Z" fill="#070707" stroke="#070707"></path><path d="M478 189.8L465 144.5L422 208Z" fill="#0b0b0b" stroke="#0b0b0b"></path><path d="M469.3 504.3L480 494.3L456 462Z" fill="#070707" stroke="#070707"></path><path d="M456 462L480 494.3L516.3 424Z" fill="#090909" stroke="#090909"></path><path d="M469.3 504.3L456 462L428.8 543.3Z" fill="#141414" stroke="#141414"></path><path d="M602.8 393.8L616.8 303.3L582.5 307.5Z" fill="#111111" stroke="#111111"></path><path d="M583.8 299.5L606.8 207L563.5 287.3Z" fill="#040404" stroke="#040404"></path><path d="M594.8 425L602.8 393.8L573.5 394.8Z" fill="#000000" stroke="#000000"></path><path d="M573.5 394.8L602.8 393.8L582.5 307.5Z" fill="#000000" stroke="#000000"></path><path d="M594.8 425L573.5 394.8L555.5 431Z" fill="#121212" stroke="#121212"></path><path d="M428.8 543.3L456 462L385.8 458Z" fill="#0d0d0d" stroke="#0d0d0d"></path><path d="M621.8 507.3L594.8 425L555.5 431Z" fill="#090909" stroke="#090909"></path><path d="M428.8 543.3L385.8 458L344.5 540.3Z" fill="#020202" stroke="#020202"></path><path d="M465 144.5L419.8 127.5L422 208Z" fill="#040404" stroke="#040404"></path><path d="M552.5 143.5L527.3 151.5L564.5 148.8Z" fill="#0d0d0d" stroke="#0d0d0d"></path><path d="M541.5 202L527.3 151.5L478 189.8Z" fill="#090909" stroke="#090909"></path><path d="M465 144.5L472.3 129.8L419.8 127.5Z" fill="#0b0b0b" stroke="#0b0b0b"></path><path d="M532.5 494.3L516.3 424L480 494.3Z" fill="#040404" stroke="#040404"></path><path d="M527.3 151.5L472.3 129.8L465 144.5Z" fill="#000000" stroke="#000000"></path><path d="M419.8 127.5L350.5 138.5L364.5 188Z" fill="#0f0f0f" stroke="#0f0f0f"></path><path d="M250 214L260.3 219L246.3 159.8Z" fill="#121212" stroke="#121212"></path><path d="M324.5 184.8L260.3 219L315.5 309.3Z" fill="#0f0f0f" stroke="#0f0f0f"></path><path d="M262 315.3L243 388.8L277.3 318.3Z" fill="#111111" stroke="#111111"></path><path d="M193 336.5L243 388.8L262 315.3Z" fill="#090909" stroke="#090909"></path><path d="M525.5 525.5L532.5 494.3L480 494.3Z" fill="#0d0d0d" stroke="#0d0d0d"></path><path d="M616.8 303.3L606.8 207L583.8 299.5Z" fill="#090909" stroke="#090909"></path><path d="M246.3 159.8L260.3 219L324.5 184.8Z" fill="#0f0f0f" stroke="#0f0f0f"></path><path d="M260.3 219L198.8 251L262 315.3Z" fill="#0b0b0b" stroke="#0b0b0b"></path><path d="M243 388.8L261 443L318.3 430.8Z" fill="#000000" stroke="#000000"></path><path d="M291.3 524.3L344.5 540.3L357.5 448Z" fill="#020202" stroke="#020202"></path><path d="M564.5 148.8L527.3 151.5L541.5 202Z" fill="#0d0d0d" stroke="#0d0d0d"></path><path d="M523.5 84.3L461 90.3L472.3 129.8Z" fill="#0b0b0b" stroke="#0b0b0b"></path><path d="M606.8 207L564.5 148.8L541.5 202Z" fill="#040404" stroke="#040404"></path><path d="M344.5 540.3L385.8 458L357.5 448Z" fill="#000000" stroke="#000000"></path><path d="M491.3 543.5L525.5 525.5L480 494.3Z" fill="#141414" stroke="#141414"></path><path d="M602.8 393.8L655 345.5L616.8 303.3Z" fill="#0d0d0d" stroke="#0d0d0d"></path><path d="M616.8 303.3L664 241.3L606.8 207Z" fill="#040404" stroke="#040404"></path><path d="M713 377.8L655 345.5L602.8 393.8Z" fill="#070707" stroke="#070707"></path><path d="M491.3 543.5L480 494.3L469.3 504.3Z" fill="#090909" stroke="#090909"></path><path d="M532.5 494.3L621.8 507.3L555.5 431Z" fill="#000000" stroke="#000000"></path><path d="M594.8 425L665 471L602.8 393.8Z" fill="#141414" stroke="#141414"></path><path d="M428.8 543.3L491.3 543.5L469.3 504.3Z" fill="#020202" stroke="#020202"></path><path d="M523.5 84.3L472.3 129.8L527.3 151.5Z" fill="#141414" stroke="#141414"></path><path d="M472.3 129.8L461 90.3L419.8 127.5Z" fill="#070707" stroke="#070707"></path><path d="M419.8 127.5L371.5 91.3L350.5 138.5Z" fill="#111111" stroke="#111111"></path><path d="M523.5 84.3L527.3 151.5L552.5 143.5Z" fill="#040404" stroke="#040404"></path><path d="M243 388.8L241.3 453L261 443Z" fill="#020202" stroke="#020202"></path><path d="M291.3 524.3L357.5 448L318.3 430.8Z" fill="#040404" stroke="#040404"></path><path d="M461 90.3L371.5 91.3L419.8 127.5Z" fill="#040404" stroke="#040404"></path><path d="M258 142.8L246.3 159.8L324.5 184.8Z" fill="#0d0d0d" stroke="#0d0d0d"></path><path d="M291.3 524.3L318.3 430.8L261 443Z" fill="#040404" stroke="#040404"></path><path d="M198.8 251L193 336.5L262 315.3Z" fill="#000000" stroke="#000000"></path><path d="M243 388.8L158.8 445L241.3 453Z" fill="#0d0d0d" stroke="#0d0d0d"></path><path d="M141.5 215L198.8 251L163.8 159.8Z" fill="#070707" stroke="#070707"></path><path d="M250 214L198.8 251L260.3 219Z" fill="#020202" stroke="#020202"></path><path d="M258 142.8L324.5 184.8L350.5 138.5Z" fill="#000000" stroke="#000000"></path><path d="M655 345.5L664 241.3L616.8 303.3Z" fill="#0b0b0b" stroke="#0b0b0b"></path><path d="M606.8 207L622.8 136.8L564.5 148.8Z" fill="#0d0d0d" stroke="#0d0d0d"></path><path d="M241.3 453L291.3 524.3L261 443Z" fill="#000000" stroke="#000000"></path><path d="M318.3 87.5L258 142.8L350.5 138.5Z" fill="#090909" stroke="#090909"></path><path d="M618.8 90.5L523.5 84.3L552.5 143.5Z" fill="#070707" stroke="#070707"></path><path d="M354.8 57.3L318.3 87.5L371.5 91.3Z" fill="#0f0f0f" stroke="#0f0f0f"></path><path d="M618.8 90.5L552.5 143.5L564.5 148.8Z" fill="#070707" stroke="#070707"></path><path d="M361.8 571.5L415 576.5L428.8 543.3Z" fill="#090909" stroke="#090909"></path><path d="M428.8 543.3L415 576.5L491.3 543.5Z" fill="#070707" stroke="#070707"></path><path d="M361.8 571.5L428.8 543.3L344.5 540.3Z" fill="#141414" stroke="#141414"></path><path d="M354.8 57.3L371.5 91.3L407.8 0Z" fill="#0b0b0b" stroke="#0b0b0b"></path><path d="M371.5 91.3L318.3 87.5L350.5 138.5Z" fill="#040404" stroke="#040404"></path><path d="M320.5 558.5L361.8 571.5L344.5 540.3Z" fill="#0f0f0f" stroke="#0f0f0f"></path><path d="M291.3 524.3L320.5 558.5L344.5 540.3Z" fill="#000000" stroke="#000000"></path><path d="M141.5 215L168.8 290.3L198.8 251Z" fill="#121212" stroke="#121212"></path><path d="M198.8 251L168.8 290.3L193 336.5Z" fill="#111111" stroke="#111111"></path><path d="M193 336.5L147.8 406.8L243 388.8Z" fill="#090909" stroke="#090909"></path><path d="M686 222L622.8 136.8L606.8 207Z" fill="#0f0f0f" stroke="#0f0f0f"></path><path d="M621.8 507.3L525.5 525.5L613.8 577.5Z" fill="#141414" stroke="#141414"></path><path d="M649 532.3L621.8 507.3L613.8 577.5Z" fill="#040404" stroke="#040404"></path><path d="M525.5 525.5L621.8 507.3L532.5 494.3Z" fill="#111111" stroke="#111111"></path><path d="M716.3 262L686 222L664 241.3Z" fill="#040404" stroke="#040404"></path><path d="M664 241.3L686 222L606.8 207Z" fill="#020202" stroke="#020202"></path><path d="M716.3 262L664 241.3L655 345.5Z" fill="#0d0d0d" stroke="#0d0d0d"></path><path d="M407.8 0L371.5 91.3L461 90.3Z" fill="#141414" stroke="#141414"></path><path d="M168.8 290.3L156.8 325.5L193 336.5Z" fill="#000000" stroke="#000000"></path><path d="M621.8 507.3L665 471L594.8 425Z" fill="#141414" stroke="#141414"></path><path d="M361.8 571.5L398.8 600.8L415 576.5Z" fill="#0f0f0f" stroke="#0f0f0f"></path><path d="M415 576.5L481.3 621.8L491.3 543.5Z" fill="#0f0f0f" stroke="#0f0f0f"></path><path d="M376.5 651.8L398.8 600.8L361.8 571.5Z" fill="#0f0f0f" stroke="#0f0f0f"></path><path d="M258 142.8L237 112.5L246.3 159.8Z" fill="#121212" stroke="#121212"></path><path d="M163.8 159.8L198.8 251L250 214Z" fill="#0f0f0f" stroke="#0f0f0f"></path><path d="M270.3 78.3L237 112.5L258 142.8Z" fill="#000000" stroke="#000000"></path><path d="M270.3 78.3L258 142.8L318.3 87.5Z" fill="#090909" stroke="#090909"></path><path d="M665 471L713 377.8L602.8 393.8Z" fill="#111111" stroke="#111111"></path><path d="M289.3 0L270.3 78.3L318.3 87.5Z" fill="#070707" stroke="#070707"></path><path d="M746.3 299.3L716.3 262L655 345.5Z" fill="#070707" stroke="#070707"></path><path d="M648 94.5L618.8 90.5L622.8 136.8Z" fill="#0b0b0b" stroke="#0b0b0b"></path><path d="M514.3 0L467.3 28.3L523.5 84.3Z" fill="#000000" stroke="#000000"></path><path d="M523.5 84.3L467.3 28.3L461 90.3Z" fill="#0f0f0f" stroke="#0f0f0f"></path><path d="M354.8 57.3L316.5 0L318.3 87.5Z" fill="#111111" stroke="#111111"></path><path d="M648 94.5L622.8 136.8L709 166.8Z" fill="#000000" stroke="#000000"></path><path d="M622.8 136.8L618.8 90.5L564.5 148.8Z" fill="#141414" stroke="#141414"></path><path d="M156.8 325.5L147.8 406.8L193 336.5Z" fill="#141414" stroke="#141414"></path><path d="M241.3 453L211 528.3L291.3 524.3Z" fill="#070707" stroke="#070707"></path><path d="M291.3 524.3L246.3 579.5L320.5 558.5Z" fill="#000000" stroke="#000000"></path><path d="M147.8 406.8L158.8 445L243 388.8Z" fill="#040404" stroke="#040404"></path><path d="M737.3 415.8L730.3 362.5L713 377.8Z" fill="#000000" stroke="#000000"></path><path d="M713 377.8L730.3 362.5L655 345.5Z" fill="#141414" stroke="#141414"></path><path d="M158.8 508.3L211 528.3L241.3 453Z" fill="#090909" stroke="#090909"></path><path d="M350.5 675L376.5 651.8L318.3 675Z" fill="#090909" stroke="#090909"></path><path d="M481.3 621.8L525.5 525.5L491.3 543.5Z" fill="#0d0d0d" stroke="#0d0d0d"></path><path d="M621.8 507.3L649 532.3L665 471Z" fill="#141414" stroke="#141414"></path><path d="M665 471L737.3 415.8L713 377.8Z" fill="#090909" stroke="#090909"></path><path d="M455 641.8L481.3 621.8L415 576.5Z" fill="#141414" stroke="#141414"></path><path d="M163.8 159.8L250 214L246.3 159.8Z" fill="#141414" stroke="#141414"></path><path d="M88.5 327.5L91.3 342.5L156.8 325.5Z" fill="#121212" stroke="#121212"></path><path d="M156.8 325.5L91.3 342.5L147.8 406.8Z" fill="#000000" stroke="#000000"></path><path d="M159.8 126.5L163.8 159.8L237 112.5Z" fill="#000000" stroke="#000000"></path><path d="M237 112.5L163.8 159.8L246.3 159.8Z" fill="#020202" stroke="#020202"></path><path d="M709 166.8L622.8 136.8L686 222Z" fill="#0b0b0b" stroke="#0b0b0b"></path><path d="M514.3 0L437 0L467.3 28.3Z" fill="#020202" stroke="#020202"></path><path d="M730.3 362.5L746.3 299.3L655 345.5Z" fill="#070707" stroke="#070707"></path><path d="M765.5 205L709 166.8L686 222Z" fill="#0b0b0b" stroke="#0b0b0b"></path><path d="M545.5 656.8L613.8 577.5L525.5 525.5Z" fill="#040404" stroke="#040404"></path><path d="M765.5 205L686 222L716.3 262Z" fill="#0b0b0b" stroke="#0b0b0b"></path><path d="M211 528.3L246.3 579.5L291.3 524.3Z" fill="#090909" stroke="#090909"></path><path d="M398.8 600.8L455 641.8L415 576.5Z" fill="#0f0f0f" stroke="#0f0f0f"></path><path d="M514.3 0L523.5 84.3L530.5 0Z" fill="#0d0d0d" stroke="#0d0d0d"></path><path d="M467.3 28.3L407.8 0L461 90.3Z" fill="#0b0b0b" stroke="#0b0b0b"></path><path d="M709.3 482L737.3 415.8L665 471Z" fill="#141414" stroke="#141414"></path><path d="M730.3 362.5L788.5 337.5L746.3 299.3Z" fill="#020202" stroke="#020202"></path><path d="M437 0L407.8 0L467.3 28.3Z" fill="#0d0d0d" stroke="#0d0d0d"></path><path d="M270.3 78.3L207.8 89.3L237 112.5Z" fill="#090909" stroke="#090909"></path><path d="M244 26.3L207.8 89.3L270.3 78.3Z" fill="#0f0f0f" stroke="#0f0f0f"></path><path d="M649 532.3L709.3 482L665 471Z" fill="#0d0d0d" stroke="#0d0d0d"></path><path d="M748.5 471.3L709.3 482L742.3 533.5Z" fill="#111111" stroke="#111111"></path><path d="M788.5 337.5L750.5 276.3L746.3 299.3Z" fill="#0d0d0d" stroke="#0d0d0d"></path><path d="M746.3 299.3L750.5 276.3L716.3 262Z" fill="#090909" stroke="#090909"></path><path d="M376.5 651.8L455 641.8L398.8 600.8Z" fill="#090909" stroke="#090909"></path><path d="M603.8 645.8L666 583.5L613.8 577.5Z" fill="#020202" stroke="#020202"></path><path d="M159.8 126.5L131.5 193.8L163.8 159.8Z" fill="#141414" stroke="#141414"></path><path d="M163.8 159.8L131.5 193.8L141.5 215Z" fill="#111111" stroke="#111111"></path><path d="M88.5 327.5L156.8 325.5L168.8 290.3Z" fill="#0b0b0b" stroke="#0b0b0b"></path><path d="M158.8 445L158.8 508.3L241.3 453Z" fill="#0b0b0b" stroke="#0b0b0b"></path><path d="M211 528.3L204 582.5L246.3 579.5Z" fill="#111111" stroke="#111111"></path><path d="M84.5 430.8L141.5 468L158.8 445Z" fill="#0d0d0d" stroke="#0d0d0d"></path><path d="M84.5 430.8L158.8 445L147.8 406.8Z" fill="#070707" stroke="#070707"></path><path d="M530.5 0L523.5 84.3L618.8 90.5Z" fill="#020202" stroke="#020202"></path><path d="M141.5 468L158.8 508.3L158.8 445Z" fill="#111111" stroke="#111111"></path><path d="M207.8 89.3L159.8 126.5L237 112.5Z" fill="#141414" stroke="#141414"></path><path d="M651.8 28.3L530.5 0L618.8 90.5Z" fill="#0b0b0b" stroke="#0b0b0b"></path><path d="M359.8 675L376.5 651.8L350.5 675Z" fill="#111111" stroke="#111111"></path><path d="M407.8 0L316.5 0L354.8 57.3Z" fill="#020202" stroke="#020202"></path><path d="M207.8 89.3L93.5 56.3L159.8 126.5Z" fill="#070707" stroke="#070707"></path><path d="M88.5 327.5L168.8 290.3L75.5 312.3Z" fill="#090909" stroke="#090909"></path><path d="M75.5 312.3L168.8 290.3L60.3 266.3Z" fill="#0f0f0f" stroke="#0f0f0f"></path><path d="M137.8 531.5L204 582.5L211 528.3Z" fill="#0f0f0f" stroke="#0f0f0f"></path><path d="M376.5 651.8L361.8 571.5L318.3 675Z" fill="#020202" stroke="#020202"></path><path d="M289.3 0L244 26.3L270.3 78.3Z" fill="#141414" stroke="#141414"></path><path d="M316.5 0L289.3 0L318.3 87.5Z" fill="#0b0b0b" stroke="#0b0b0b"></path><path d="M709.3 482L748.5 471.3L737.3 415.8Z" fill="#020202" stroke="#020202"></path><path d="M783.5 409.8L788.5 337.5L730.3 362.5Z" fill="#0b0b0b" stroke="#0b0b0b"></path><path d="M742.3 533.5L709.3 482L649 532.3Z" fill="#070707" stroke="#070707"></path><path d="M545.5 656.8L525.5 525.5L481.3 621.8Z" fill="#111111" stroke="#111111"></path><path d="M613.8 577.5L666 583.5L649 532.3Z" fill="#020202" stroke="#020202"></path><path d="M750.5 276.3L765.5 205L716.3 262Z" fill="#070707" stroke="#070707"></path><path d="M709 166.8L737.3 138.5L648 94.5Z" fill="#141414" stroke="#141414"></path><path d="M815.8 219L765.5 205L750.5 276.3Z" fill="#000000" stroke="#000000"></path><path d="M376.5 651.8L435 675L455 641.8Z" fill="#070707" stroke="#070707"></path><path d="M480.3 675L545.5 656.8L481.3 621.8Z" fill="#090909" stroke="#090909"></path><path d="M751.3 138.8L737.3 138.5L709 166.8Z" fill="#0f0f0f" stroke="#0f0f0f"></path><path d="M648 94.5L651.8 28.3L618.8 90.5Z" fill="#090909" stroke="#090909"></path><path d="M480.3 675L481.3 621.8L455 641.8Z" fill="#020202" stroke="#020202"></path><path d="M60.3 266.3L141.5 215L75.3 192.8Z" fill="#111111" stroke="#111111"></path><path d="M60.3 266.3L168.8 290.3L141.5 215Z" fill="#0f0f0f" stroke="#0f0f0f"></path><path d="M88.5 327.5L75.5 312.3L91.3 342.5Z" fill="#141414" stroke="#141414"></path><path d="M75.3 504.3L137.8 531.5L141.5 468Z" fill="#111111" stroke="#111111"></path><path d="M783.5 409.8L730.3 362.5L737.3 415.8Z" fill="#121212" stroke="#121212"></path><path d="M435 675L480.3 675L455 641.8Z" fill="#111111" stroke="#111111"></path><path d="M141.5 468L137.8 531.5L158.8 508.3Z" fill="#040404" stroke="#040404"></path><path d="M158.8 508.3L137.8 531.5L211 528.3Z" fill="#0f0f0f" stroke="#0f0f0f"></path><path d="M84.5 430.8L147.8 406.8L91.3 342.5Z" fill="#111111" stroke="#111111"></path><path d="M376.5 651.8L359.8 675L435 675Z" fill="#111111" stroke="#111111"></path><path d="M361.8 571.5L320.5 558.5L318.3 675Z" fill="#0f0f0f" stroke="#0f0f0f"></path><path d="M748.5 471.3L783.5 409.8L737.3 415.8Z" fill="#020202" stroke="#020202"></path><path d="M318.3 675L320.5 558.5L252.3 653.8Z" fill="#020202" stroke="#020202"></path><path d="M62.3 424.8L84.5 430.8L91.3 342.5Z" fill="#0b0b0b" stroke="#0b0b0b"></path><path d="M691.3 59.3L651.8 28.3L648 94.5Z" fill="#121212" stroke="#121212"></path><path d="M765.5 205L751.3 138.8L709 166.8Z" fill="#121212" stroke="#121212"></path><path d="M737.3 138.5L691.3 59.3L648 94.5Z" fill="#000000" stroke="#000000"></path><path d="M747.5 35.3L691.3 59.3L737.3 138.5Z" fill="#111111" stroke="#111111"></path><path d="M545.5 656.8L603.8 645.8L613.8 577.5Z" fill="#0d0d0d" stroke="#0d0d0d"></path><path d="M579.5 675L603.8 645.8L545.5 656.8Z" fill="#090909" stroke="#090909"></path><path d="M138.8 613.8L204 612.8L204 582.5Z" fill="#111111" stroke="#111111"></path><path d="M204 582.5L204 612.8L246.3 579.5Z" fill="#090909" stroke="#090909"></path><path d="M252.3 653.8L320.5 558.5L246.3 579.5Z" fill="#000000" stroke="#000000"></path><path d="M75.3 192.8L141.5 215L131.5 193.8Z" fill="#0d0d0d" stroke="#0d0d0d"></path><path d="M0 340.5L62.3 424.8L91.3 342.5Z" fill="#000000" stroke="#000000"></path><path d="M746.3 586.8L742.3 533.5L666 583.5Z" fill="#121212" stroke="#121212"></path><path d="M666 583.5L742.3 533.5L649 532.3Z" fill="#070707" stroke="#070707"></path><path d="M748.5 471.3L809.5 455L783.5 409.8Z" fill="#141414" stroke="#141414"></path><path d="M81.5 110.5L75.3 192.8L131.5 193.8Z" fill="#0b0b0b" stroke="#0b0b0b"></path><path d="M81.5 110.5L131.5 193.8L159.8 126.5Z" fill="#121212" stroke="#121212"></path><path d="M204 612.8L252.3 653.8L246.3 579.5Z" fill="#040404" stroke="#040404"></path><path d="M33.3 450L62.3 424.8L0 410.8Z" fill="#040404" stroke="#040404"></path><path d="M84.5 430.8L75.3 504.3L141.5 468Z" fill="#0d0d0d" stroke="#0d0d0d"></path><path d="M480.3 675L579.5 675L545.5 656.8Z" fill="#020202" stroke="#020202"></path><path d="M650 675L701 609.8L666 583.5Z" fill="#070707" stroke="#070707"></path><path d="M709 25.3L651.8 28.3L691.3 59.3Z" fill="#020202" stroke="#020202"></path><path d="M685 0L649.8 0L651.8 28.3Z" fill="#121212" stroke="#121212"></path><path d="M651.8 28.3L649.8 0L530.5 0Z" fill="#0d0d0d" stroke="#0d0d0d"></path><path d="M650 675L666 583.5L603.8 645.8Z" fill="#040404" stroke="#040404"></path><path d="M765.5 205L781.5 133.8L751.3 138.8Z" fill="#090909" stroke="#090909"></path><path d="M751.3 138.8L747.5 35.3L737.3 138.5Z" fill="#090909" stroke="#090909"></path><path d="M815.8 219L781.5 133.8L765.5 205Z" fill="#090909" stroke="#090909"></path><path d="M829.8 324.5L815.8 219L750.5 276.3Z" fill="#141414" stroke="#141414"></path><path d="M829.8 324.5L750.5 276.3L788.5 337.5Z" fill="#0d0d0d" stroke="#0d0d0d"></path><path d="M289.3 0L196 0L244 26.3Z" fill="#111111" stroke="#111111"></path><path d="M244 26.3L196 0L207.8 89.3Z" fill="#040404" stroke="#040404"></path><path d="M846.8 364.8L788.5 337.5L783.5 409.8Z" fill="#0b0b0b" stroke="#0b0b0b"></path><path d="M846.8 364.8L829.8 324.5L788.5 337.5Z" fill="#090909" stroke="#090909"></path><path d="M33.3 450L75.3 504.3L84.5 430.8Z" fill="#090909" stroke="#090909"></path><path d="M137.8 531.5L138.8 613.8L204 582.5Z" fill="#000000" stroke="#000000"></path><path d="M204 612.8L195.8 675L252.3 653.8Z" fill="#070707" stroke="#070707"></path><path d="M768.3 539.3L748.5 471.3L742.3 533.5Z" fill="#070707" stroke="#070707"></path><path d="M812.8 526.3L809.5 455L748.5 471.3Z" fill="#111111" stroke="#111111"></path><path d="M76.5 519.3L112.5 563.5L137.8 531.5Z" fill="#040404" stroke="#040404"></path><path d="M746.3 586.8L768.3 539.3L742.3 533.5Z" fill="#040404" stroke="#040404"></path><path d="M747.5 35.3L709 25.3L691.3 59.3Z" fill="#141414" stroke="#141414"></path><path d="M70.3 535.5L76.5 519.3L75.3 504.3Z" fill="#0f0f0f" stroke="#0f0f0f"></path><path d="M75.3 504.3L76.5 519.3L137.8 531.5Z" fill="#111111" stroke="#111111"></path><path d="M93.5 56.3L81.5 110.5L159.8 126.5Z" fill="#0f0f0f" stroke="#0f0f0f"></path><path d="M75.3 192.8L18.3 209L60.3 266.3Z" fill="#0f0f0f" stroke="#0f0f0f"></path><path d="M709 25.3L685 0L651.8 28.3Z" fill="#0b0b0b" stroke="#0b0b0b"></path><path d="M791.5 595.5L746.3 586.8L743.3 675Z" fill="#0d0d0d" stroke="#0d0d0d"></path><path d="M701 609.8L746.3 586.8L666 583.5Z" fill="#090909" stroke="#090909"></path><path d="M768.3 539.3L812.8 526.3L748.5 471.3Z" fill="#070707" stroke="#070707"></path><path d="M579.5 675L643.8 675L603.8 645.8Z" fill="#070707" stroke="#070707"></path><path d="M135.5 650.8L138.8 613.8L70.3 603.8Z" fill="#000000" stroke="#000000"></path><path d="M112.5 563.5L138.8 613.8L137.8 531.5Z" fill="#141414" stroke="#141414"></path><path d="M643.8 675L650 675L603.8 645.8Z" fill="#111111" stroke="#111111"></path><path d="M875.8 425L846.8 364.8L783.5 409.8Z" fill="#040404" stroke="#040404"></path><path d="M871.8 318.3L844.8 203.8L815.8 219Z" fill="#0d0d0d" stroke="#0d0d0d"></path><path d="M0 340.5L91.3 342.5L75.5 312.3Z" fill="#141414" stroke="#141414"></path><path d="M62.3 424.8L33.3 450L84.5 430.8Z" fill="#090909" stroke="#090909"></path><path d="M0 340.5L75.5 312.3L0 283.3Z" fill="#0d0d0d" stroke="#0d0d0d"></path><path d="M0 501.3L70.3 535.5L75.3 504.3Z" fill="#0d0d0d" stroke="#0d0d0d"></path><path d="M76.5 519.3L70.3 535.5L112.5 563.5Z" fill="#0f0f0f" stroke="#0f0f0f"></path><path d="M806.5 89.5L747.5 35.3L751.3 138.8Z" fill="#040404" stroke="#040404"></path><path d="M709 25.3L754.3 0L685 0Z" fill="#0d0d0d" stroke="#0d0d0d"></path><path d="M806.5 89.5L751.3 138.8L781.5 133.8Z" fill="#020202" stroke="#020202"></path><path d="M187 675L195.8 675L204 612.8Z" fill="#121212" stroke="#121212"></path><path d="M252.3 653.8L195.8 675L318.3 675Z" fill="#0b0b0b" stroke="#0b0b0b"></path><path d="M0 154.8L18.3 209L75.3 192.8Z" fill="#000000" stroke="#000000"></path><path d="M141.5 0L93.5 56.3L207.8 89.3Z" fill="#0d0d0d" stroke="#0d0d0d"></path><path d="M81.5 110.5L0 154.8L75.3 192.8Z" fill="#121212" stroke="#121212"></path><path d="M871.8 318.3L815.8 219L829.8 324.5Z" fill="#141414" stroke="#141414"></path><path d="M815.8 219L844.8 203.8L781.5 133.8Z" fill="#070707" stroke="#070707"></path><path d="M93.5 56.3L76.3 76.3L81.5 110.5Z" fill="#000000" stroke="#000000"></path><path d="M135.5 650.8L187 675L204 612.8Z" fill="#0b0b0b" stroke="#0b0b0b"></path><path d="M135.5 650.8L204 612.8L138.8 613.8Z" fill="#0f0f0f" stroke="#0f0f0f"></path><path d="M196 0L141.5 0L207.8 89.3Z" fill="#0b0b0b" stroke="#0b0b0b"></path><path d="M93.5 56.3L51.3 80.5L76.3 76.3Z" fill="#090909" stroke="#090909"></path><path d="M0 283.3L75.5 312.3L60.3 266.3Z" fill="#0f0f0f" stroke="#0f0f0f"></path><path d="M0 245L0 283.3L60.3 266.3Z" fill="#141414" stroke="#141414"></path><path d="M815.5 579.8L812.8 526.3L768.3 539.3Z" fill="#121212" stroke="#121212"></path><path d="M809.5 455L875.8 425L783.5 409.8Z" fill="#040404" stroke="#040404"></path><path d="M791.5 595.5L768.3 539.3L746.3 586.8Z" fill="#090909" stroke="#090909"></path><path d="M0 154.8L0 245L18.3 209Z" fill="#070707" stroke="#070707"></path><path d="M18.3 209L0 245L60.3 266.3Z" fill="#111111" stroke="#111111"></path><path d="M141.5 0L131.8 0L93.5 56.3Z" fill="#121212" stroke="#121212"></path><path d="M853.8 127.5L806.5 89.5L781.5 133.8Z" fill="#0f0f0f" stroke="#0f0f0f"></path><path d="M900 319.5L871.8 318.3L846.8 364.8Z" fill="#121212" stroke="#121212"></path><path d="M846.8 364.8L871.8 318.3L829.8 324.5Z" fill="#040404" stroke="#040404"></path><path d="M0 340.5L0 410.8L62.3 424.8Z" fill="#070707" stroke="#070707"></path><path d="M33.3 450L0 501.3L75.3 504.3Z" fill="#121212" stroke="#121212"></path><path d="M70.3 603.8L138.8 613.8L112.5 563.5Z" fill="#121212" stroke="#121212"></path><path d="M0 410.8L0 427L33.3 450Z" fill="#121212" stroke="#121212"></path><path d="M83.3 675L140.5 675L135.5 650.8Z" fill="#020202" stroke="#020202"></path><path d="M0 43.3L51.3 80.5L29.3 0Z" fill="#141414" stroke="#141414"></path><path d="M76.3 76.3L51.3 80.5L81.5 110.5Z" fill="#0d0d0d" stroke="#0d0d0d"></path><path d="M743.3 675L746.3 586.8L701 609.8Z" fill="#020202" stroke="#020202"></path><path d="M805.8 29.3L754.3 0L747.5 35.3Z" fill="#121212" stroke="#121212"></path><path d="M747.5 35.3L754.3 0L709 25.3Z" fill="#111111" stroke="#111111"></path><path d="M900 453L809.5 455L900 520.3Z" fill="#141414" stroke="#141414"></path><path d="M900 453L875.8 425L809.5 455Z" fill="#0d0d0d" stroke="#0d0d0d"></path><path d="M135.5 650.8L140.5 675L187 675Z" fill="#111111" stroke="#111111"></path><path d="M70.3 603.8L112.5 563.5L70.3 535.5Z" fill="#0b0b0b" stroke="#0b0b0b"></path><path d="M0 529.5L70.3 603.8L70.3 535.5Z" fill="#121212" stroke="#121212"></path><path d="M0 107.5L0 154.8L81.5 110.5Z" fill="#0b0b0b" stroke="#0b0b0b"></path><path d="M791.5 595.5L815.5 579.8L768.3 539.3Z" fill="#070707" stroke="#070707"></path><path d="M844.8 203.8L853.8 127.5L781.5 133.8Z" fill="#020202" stroke="#020202"></path><path d="M806.5 89.5L805.8 29.3L747.5 35.3Z" fill="#090909" stroke="#090909"></path><path d="M900 167.8L853.8 127.5L844.8 203.8Z" fill="#141414" stroke="#141414"></path><path d="M0 427L0 501.3L33.3 450Z" fill="#020202" stroke="#020202"></path><path d="M900 408.8L900 319.5L846.8 364.8Z" fill="#0d0d0d" stroke="#0d0d0d"></path><path d="M871.8 318.3L900 218L844.8 203.8Z" fill="#090909" stroke="#090909"></path><path d="M900 319.5L900 308.3L871.8 318.3Z" fill="#0f0f0f" stroke="#0f0f0f"></path><path d="M821.5 675L811.8 594.5L791.5 595.5Z" fill="#121212" stroke="#121212"></path><path d="M791.5 595.5L811.8 594.5L815.5 579.8Z" fill="#111111" stroke="#111111"></path><path d="M900 453L900 408.8L875.8 425Z" fill="#0b0b0b" stroke="#0b0b0b"></path><path d="M650 675L743.3 675L701 609.8Z" fill="#020202" stroke="#020202"></path><path d="M900 78.3L805.8 29.3L806.5 89.5Z" fill="#090909" stroke="#090909"></path><path d="M809.5 455L812.8 526.3L900 520.3Z" fill="#0f0f0f" stroke="#0f0f0f"></path><path d="M875.8 425L900 408.8L846.8 364.8Z" fill="#040404" stroke="#040404"></path><path d="M900 308.3L900 218L871.8 318.3Z" fill="#0d0d0d" stroke="#0d0d0d"></path><path d="M863.8 0L812.5 0L805.8 29.3Z" fill="#0b0b0b" stroke="#0b0b0b"></path><path d="M0 501.3L0 529.5L70.3 535.5Z" fill="#141414" stroke="#141414"></path><path d="M0 43.3L0 107.5L51.3 80.5Z" fill="#0f0f0f" stroke="#0f0f0f"></path><path d="M51.3 80.5L0 107.5L81.5 110.5Z" fill="#0f0f0f" stroke="#0f0f0f"></path><path d="M852.8 583.8L812.8 526.3L815.5 579.8Z" fill="#000000" stroke="#000000"></path><path d="M900 218L900 167.8L844.8 203.8Z" fill="#020202" stroke="#020202"></path><path d="M811.8 594.5L852.8 583.8L815.5 579.8Z" fill="#111111" stroke="#111111"></path><path d="M851.8 675L852.8 583.8L811.8 594.5Z" fill="#000000" stroke="#000000"></path><path d="M0 616.8L83.3 675L70.3 603.8Z" fill="#090909" stroke="#090909"></path><path d="M70.3 603.8L83.3 675L135.5 650.8Z" fill="#0f0f0f" stroke="#0f0f0f"></path><path d="M900 78.3L806.5 89.5L853.8 127.5Z" fill="#090909" stroke="#090909"></path><path d="M805.8 29.3L812.5 0L754.3 0Z" fill="#090909" stroke="#090909"></path><path d="M900 167.8L900 119.5L853.8 127.5Z" fill="#0b0b0b" stroke="#0b0b0b"></path><path d="M852.8 583.8L900 520.3L812.8 526.3Z" fill="#111111" stroke="#111111"></path><path d="M29.3 0L51.3 80.5L93.5 56.3Z" fill="#121212" stroke="#121212"></path><path d="M131.8 0L29.3 0L93.5 56.3Z" fill="#0b0b0b" stroke="#0b0b0b"></path><path d="M0 529.5L0 616.8L70.3 603.8Z" fill="#040404" stroke="#040404"></path><path d="M900 119.5L900 78.3L853.8 127.5Z" fill="#0d0d0d" stroke="#0d0d0d"></path><path d="M743.3 675L821.5 675L791.5 595.5Z" fill="#070707" stroke="#070707"></path><path d="M852.8 583.8L900 580.5L900 520.3Z" fill="#0d0d0d" stroke="#0d0d0d"></path><path d="M900 611.8L900 580.5L852.8 583.8Z" fill="#040404" stroke="#040404"></path><path d="M29.3 0L0 0L0 43.3Z" fill="#0f0f0f" stroke="#0f0f0f"></path><path d="M900 78.3L863.8 0L805.8 29.3Z" fill="#0b0b0b" stroke="#0b0b0b"></path><path d="M821.5 675L851.8 675L811.8 594.5Z" fill="#000000" stroke="#000000"></path><path d="M851.8 675L900 611.8L852.8 583.8Z" fill="#090909" stroke="#090909"></path><path d="M0 616.8L0 675L83.3 675Z" fill="#070707" stroke="#070707"></path><path d="M900 78.3L900 0L863.8 0Z" fill="#121212" stroke="#121212"></path><path d="M851.8 675L900 675L900 611.8Z" fill="#111111" stroke="#111111"></path></g><path d="M0 94L13.7 84.5C27.3 75 54.7 56 82 49.5C109.3 43 136.7 49 163.8 50.7C191 52.3 218 49.7 245.2 46.2C272.3 42.7 299.7 38.3 327 47C354.3 55.7 381.7 77.3 409 87.2C436.3 97 463.7 95 491 86.5C518.3 78 545.7 63 573 56C600.3 49 627.7 50 654.8 56.2C682 62.3 709 73.7 736.2 71C763.3 68.3 790.7 51.7 818 45.5C845.3 39.3 872.7 43.7 886.3 45.8L900 48L900 0L886.3 0C872.7 0 845.3 0 818 0C790.7 0 763.3 0 736.2 0C709 0 682 0 654.8 0C627.7 0 600.3 0 573 0C545.7 0 518.3 0 491 0C463.7 0 436.3 0 409 0C381.7 0 354.3 0 327 0C299.7 0 272.3 0 245.2 0C218 0 191 0 163.8 0C136.7 0 109.3 0 82 0C54.7 0 27.3 0 13.7 0L0 0Z" fill="#000000" stroke-linecap="round" stroke-linejoin="miter"></path><path d="M0 524L13.7 535.7C27.3 547.3 54.7 570.7 82 583.5C109.3 596.3 136.7 598.7 163.8 595.8C191 593 218 585 245.2 585.8C272.3 586.7 299.7 596.3 327 598C354.3 599.7 381.7 593.3 409 591C436.3 588.7 463.7 590.3 491 584.3C518.3 578.3 545.7 564.7 573 568.3C600.3 572 627.7 593 654.8 588.3C682 583.7 709 553.3 736.2 548.5C763.3 543.7 790.7 564.3 818 566.7C845.3 569 872.7 553 886.3 545L900 537L900 676L886.3 676C872.7 676 845.3 676 818 676C790.7 676 763.3 676 736.2 676C709 676 682 676 654.8 676C627.7 676 600.3 676 573 676C545.7 676 518.3 676 491 676C463.7 676 436.3 676 409 676C381.7 676 354.3 676 327 676C299.7 676 272.3 676 245.2 676C218 676 191 676 163.8 676C136.7 676 109.3 676 82 676C54.7 676 27.3 676 13.7 676L0 676Z" fill="#000000" stroke-linecap="round" stroke-linejoin="miter"></path></svg>