<svg xmlns="http://www.w3.org/2000/svg" viewBox="0 0 1440 320">
  <path fill="#22271d" fill-opacity="1" d="M0,160L30,154.7C60,149,120,139,180,144C240,149,300,171,360,160C420,149,480,107,540,106.7C600,107,660,149,720,160C780,171,840,149,900,160C960,171,1020,213,1080,229.3C1140,245,1200,235,1260,224C1320,213,1380,203,1410,197.3L1440,192L1440,320L1410,320C1380,320,1320,320,1260,320C1200,320,1140,320,1080,320C1020,320,960,320,900,320C840,320,780,320,720,320C660,320,600,320,540,320C480,320,420,320,360,320C300,320,240,320,180,320C120,320,60,320,30,320L0,320Z"></path>
</svg>