<svg id="visual" viewBox="0 0 960 540" width="960" height="540" xmlns="http://www.w3.org/2000/svg" xmlns:xlink="http://www.w3.org/1999/xlink" version="1.1"><rect x="0" y="0" width="960" height="540" fill="#001220"></rect><defs><linearGradient id="grad1_0" x1="43.8%" y1="0%" x2="100%" y2="100%"><stop offset="14.444444444444446%" stop-color="#643cfa" stop-opacity="1"></stop><stop offset="85.55555555555554%" stop-color="#643cfa" stop-opacity="1"></stop></linearGradient></defs><defs><linearGradient id="grad1_1" x1="43.8%" y1="0%" x2="100%" y2="100%"><stop offset="14.444444444444446%" stop-color="#643cfa" stop-opacity="1"></stop><stop offset="85.55555555555554%" stop-color="#003892" stop-opacity="1"></stop></linearGradient></defs><defs><linearGradient id="grad1_2" x1="43.8%" y1="0%" x2="100%" y2="100%"><stop offset="14.444444444444446%" stop-color="#001220" stop-opacity="1"></stop><stop offset="85.55555555555554%" stop-color="#003892" stop-opacity="1"></stop></linearGradient></defs><defs><linearGradient id="grad2_0" x1="0%" y1="0%" x2="56.3%" y2="100%"><stop offset="14.444444444444446%" stop-color="#643cfa" stop-opacity="1"></stop><stop offset="85.55555555555554%" stop-color="#643cfa" stop-opacity="1"></stop></linearGradient></defs><defs><linearGradient id="grad2_1" x1="0%" y1="0%" x2="56.3%" y2="100%"><stop offset="14.444444444444446%" stop-color="#003892" stop-opacity="1"></stop><stop offset="85.55555555555554%" stop-color="#643cfa" stop-opacity="1"></stop></linearGradient></defs><defs><linearGradient id="grad2_2" x1="0%" y1="0%" x2="56.3%" y2="100%"><stop offset="14.444444444444446%" stop-color="#003892" stop-opacity="1"></stop><stop offset="85.55555555555554%" stop-color="#001220" stop-opacity="1"></stop></linearGradient></defs><g transform="translate(960, 0)"><path d="M0 297C-17.1 269.2 -34.1 241.4 -52.7 231.1C-71.3 220.7 -91.5 227.7 -106.7 221.6C-122 215.6 -132.2 196.4 -149.6 187.6C-167 178.9 -191.5 180.6 -218.1 174C-244.7 167.3 -273.5 152.4 -267.6 128.9C-261.7 105.3 -221.2 73.2 -220.3 50.3C-219.5 27.4 -258.2 13.7 -297 0L0 0Z" fill="#002757"></path><path d="M0 198C-11.4 179.5 -22.8 161 -35.2 154C-47.6 147.1 -61 151.8 -71.2 147.8C-81.3 143.7 -88.2 130.9 -99.8 125.1C-111.4 119.3 -127.7 120.4 -145.4 116C-163.2 111.6 -182.3 101.6 -178.4 85.9C-174.5 70.2 -147.5 48.8 -146.9 33.5C-146.3 18.3 -172.2 9.1 -198 0L0 0Z" fill="#0041ca"></path><path d="M0 99C-5.7 89.7 -11.4 80.5 -17.6 77C-23.8 73.6 -30.5 75.9 -35.6 73.9C-40.7 71.9 -44.1 65.5 -49.9 62.5C-55.7 59.6 -63.8 60.2 -72.7 58C-81.6 55.8 -91.2 50.8 -89.2 43C-87.2 35.1 -73.7 24.4 -73.4 16.8C-73.2 9.1 -86.1 4.6 -99 0L0 0Z" fill="#643cfa"></path></g><g transform="translate(0, 540)"><path d="M0 -297C17.8 -280 35.7 -263.1 60.1 -263.2C84.5 -263.4 115.5 -280.6 128.9 -267.6C142.2 -254.5 137.8 -211.1 155.2 -194.7C172.7 -178.2 212 -188.7 218.1 -174C224.2 -159.2 197.1 -119.3 204.5 -98.5C211.9 -77.7 253.8 -76 274.9 -62.8C296.1 -49.5 296.5 -24.8 297 0L0 0Z" fill="#002757"></path><path d="M0 -198C11.9 -186.7 23.8 -175.4 40.1 -175.5C56.3 -175.6 77 -187.1 85.9 -178.4C94.8 -169.7 91.9 -140.8 103.5 -129.8C115.1 -118.8 141.3 -125.8 145.4 -116C149.5 -106.2 131.4 -79.5 136.3 -65.7C141.3 -51.8 169.2 -50.7 183.3 -41.8C197.4 -33 197.7 -16.5 198 0L0 0Z" fill="#0041ca"></path><path d="M0 -99C5.9 -93.3 11.9 -87.7 20 -87.7C28.2 -87.8 38.5 -93.5 43 -89.2C47.4 -84.8 45.9 -70.4 51.7 -64.9C57.6 -59.4 70.7 -62.9 72.7 -58C74.7 -53.1 65.7 -39.8 68.2 -32.8C70.6 -25.9 84.6 -25.3 91.6 -20.9C98.7 -16.5 98.8 -8.3 99 0L0 0Z" fill="#643cfa"></path></g></svg>